<svg width="72" height="70" viewBox="0 0 72 70" fill="none" xmlns="http://www.w3.org/2000/svg">
<path d="M19.4338 43.146H2.18284C0.979227 43.146 0 44.1254 0 45.329V67.8068C0 69.0104 0.979227 69.9896 2.18284 69.9896H19.4338C20.6374 69.9896 21.6167 69.0104 21.6167 67.8068V62.3665C21.6167 61.7842 21.1446 61.3121 20.5622 61.3121C19.9799 61.3121 19.5078 61.7842 19.5078 62.3665V67.8068C19.5078 67.8475 19.4746 67.8807 19.4338 67.8807H2.18284C2.14207 67.8807 2.10889 67.8475 2.10889 67.8068V45.329C2.10889 45.2882 2.14207 45.255 2.18284 45.255H19.4338C19.4746 45.255 19.5078 45.2882 19.5078 45.329V57.4949C19.5078 58.0772 19.9799 58.5493 20.5622 58.5493C21.1446 58.5493 21.6167 58.0772 21.6167 57.4949V45.329C21.6165 44.1254 20.6374 43.146 19.4338 43.146Z" fill="#F5AB06"/>
<path d="M44.6255 43.146H27.3745C26.1708 43.146 25.1916 44.1252 25.1916 45.3288V67.8066C25.1916 69.0102 26.1708 69.9895 27.3745 69.9895H44.6255C45.8291 69.9895 46.8082 69.0102 46.8082 67.8066V45.329C46.8083 44.1254 45.8291 43.146 44.6255 43.146ZM44.6994 67.8068C44.6994 67.8475 44.6664 67.8807 44.6256 67.8807H27.3745C27.3337 67.8807 27.3005 67.8475 27.3005 67.8068V45.329C27.3005 45.2882 27.3337 45.255 27.3745 45.255H44.6255C44.6662 45.255 44.6993 45.2882 44.6993 45.329V67.8068H44.6994Z" fill="#F5AB06"/>
<path d="M69.8172 43.146H52.5663C51.3626 43.146 50.3835 44.1252 50.3835 45.3288V67.8066C50.3835 69.0102 51.3627 69.9895 52.5663 69.9895H69.8172C71.0209 69.9895 72 69.0102 72 67.8066V45.329C72 44.1254 71.0208 43.146 69.8172 43.146ZM69.8911 67.8068C69.8911 67.8475 69.8579 67.8807 69.8172 67.8807H52.5663C52.5255 67.8807 52.4924 67.8475 52.4924 67.8068V45.329C52.4924 45.2882 52.5255 45.255 52.5663 45.255H69.8172C69.8579 45.255 69.8911 45.2882 69.8911 45.329V67.8068Z" fill="#F5AB06"/>
<path d="M17.6527 49.9079C17.6527 48.9385 16.8641 48.1499 15.8949 48.1499H5.72186C4.75248 48.1499 3.96404 48.9385 3.96404 49.9079V54.5393C3.96404 55.5086 4.75262 56.2971 5.72186 56.2971H15.8949C16.8642 56.2971 17.6527 55.5085 17.6527 54.5393V49.9079ZM15.5438 54.1882H6.07278V50.2588H15.5438V54.1882Z" fill="#F5AB06"/>
<path d="M17.6527 59.804C17.6527 59.2216 17.1806 58.7495 16.5982 58.7495H5.01831C4.43598 58.7495 3.96387 59.2216 3.96387 59.804C3.96387 60.3863 4.43598 60.8584 5.01831 60.8584H16.5982C17.1806 60.8584 17.6527 60.3863 17.6527 59.804Z" fill="#F5AB06"/>
<path d="M5.01831 62.8765C4.43598 62.8765 3.96387 63.3486 3.96387 63.9309C3.96387 64.5132 4.43598 64.9853 5.01831 64.9853H12.6906C13.2729 64.9853 13.745 64.5132 13.745 63.9309C13.745 63.3486 13.2729 62.8765 12.6906 62.8765H5.01831Z" fill="#F5AB06"/>
<path d="M41.0863 48.1499H30.9135C29.9441 48.1499 29.1555 48.9385 29.1555 49.9079V54.5393C29.1555 55.5086 29.9441 56.2971 30.9135 56.2971H41.0863C42.0557 56.2971 42.8443 55.5085 42.8443 54.5393V49.9079C42.8443 48.9385 42.0557 48.1499 41.0863 48.1499ZM40.7354 54.1882H31.2644V50.2588H40.7354V54.1882Z" fill="#F5AB06"/>
<path d="M41.7899 58.7495H30.21C29.6276 58.7495 29.1555 59.2216 29.1555 59.804C29.1555 60.3863 29.6276 60.8584 30.21 60.8584H41.7899C42.3723 60.8584 42.8443 60.3863 42.8443 59.804C42.8443 59.2216 42.3723 58.7495 41.7899 58.7495Z" fill="#F5AB06"/>
<path d="M37.8822 62.8765H30.21C29.6276 62.8765 29.1555 63.3486 29.1555 63.9309C29.1555 64.5132 29.6276 64.9853 30.21 64.9853H37.8822C38.4647 64.9853 38.9367 64.5132 38.9367 63.9309C38.9367 63.3486 38.4647 62.8765 37.8822 62.8765Z" fill="#F5AB06"/>
<path d="M66.2782 48.1499H56.1053C55.1359 48.1499 54.3473 48.9385 54.3473 49.9079V54.5393C54.3473 55.5086 55.1359 56.2971 56.1053 56.2971H66.2782C67.2475 56.2971 68.0361 55.5085 68.0361 54.5393V49.9079C68.0361 48.9385 67.2474 48.1499 66.2782 48.1499ZM65.9272 54.1882H56.4562V50.2588H65.9272V54.1882Z" fill="#F5AB06"/>
<path d="M66.9817 58.7495H55.4018C54.8193 58.7495 54.3473 59.2216 54.3473 59.804C54.3473 60.3863 54.8193 60.8584 55.4018 60.8584H66.9817C67.5642 60.8584 68.0361 60.3863 68.0361 59.804C68.0361 59.2216 67.564 58.7495 66.9817 58.7495Z" fill="#F5AB06"/>
<path d="M63.0741 62.8765H55.4018C54.8193 62.8765 54.3473 63.3486 54.3473 63.9309C54.3473 64.5132 54.8193 64.9853 55.4018 64.9853H63.0741C63.6565 64.9853 64.1285 64.5132 64.1285 63.9309C64.1285 63.3486 63.6564 62.8765 63.0741 62.8765Z" fill="#F5AB06"/>
<path d="M10.8084 40.7598C11.3907 40.7598 11.8628 40.2877 11.8628 39.7054V32.781H34.9456V39.7054C34.9456 40.2877 35.4177 40.7598 36.0001 40.7598C36.5824 40.7598 37.0545 40.2877 37.0545 39.7054V32.781H60.1373V39.7054C60.1373 40.2877 60.6093 40.7598 61.1917 40.7598C61.7742 40.7598 62.2462 40.2877 62.2462 39.7054V31.7266C62.2462 31.1443 61.7742 30.6722 61.1917 30.6722H37.0546V26.8545H47.1994C48.4031 26.8545 49.3824 25.8751 49.3824 24.6714C49.3824 24.6383 49.3824 24.6053 49.3824 24.5721C49.3824 24.4349 49.3769 7.34475 49.3728 7.30005C49.3621 7.18096 49.3353 7.06905 49.2825 6.95138C49.2291 6.83215 49.1591 6.71532 49.0652 6.62337C49.053 6.61142 42.6119 0.311329 42.6119 0.311329C42.4254 0.128981 42.1337 0.0107422 41.8744 0.0107422C41.8598 0.0107422 39.2805 0.0107422 39.2805 0.0107422C38.698 0.0107422 38.2261 0.482852 38.2261 1.06519C38.2261 1.64752 38.698 2.11963 39.2805 2.11963H40.82V6.20609C40.82 7.43333 41.8185 8.43182 43.0457 8.43182H47.2733V24.6714C47.2733 24.7123 47.2402 24.7456 47.1992 24.7456H24.8007C24.7598 24.7456 24.7266 24.7123 24.7266 24.6714V2.194C24.7266 2.15309 24.7598 2.11977 24.8007 2.11977H34.3657C34.948 2.11977 35.4201 1.64766 35.4201 1.06533C35.4201 0.482993 34.948 0.0108828 34.3657 0.0108828H24.8007C23.597 0.0108828 22.6178 0.990251 22.6178 2.194V24.6714C22.6178 25.8751 23.597 26.8545 24.8007 26.8545H34.9456V30.6722H10.8084C10.2261 30.6722 9.75395 31.1443 9.75395 31.7266V39.7054C9.75395 40.2877 10.2261 40.7598 10.8084 40.7598ZM43.0459 6.32293C42.9815 6.32293 42.929 6.27049 42.929 6.20609V3.57167L45.3254 5.91563L45.7419 6.32307H43.0459V6.32293Z" fill="#F5AB06"/>
<path d="M40.9713 10.8706H31.0286C30.4463 10.8706 29.9742 11.3427 29.9742 11.9251C29.9742 12.5074 30.4463 12.9795 31.0286 12.9795H40.9713C41.5538 12.9795 42.0258 12.5074 42.0258 11.9251C42.0258 11.3427 41.5538 10.8706 40.9713 10.8706Z" fill="#F5AB06"/>
<path d="M44.1473 15.5605H27.8529C27.2705 15.5605 26.7984 16.0327 26.7984 16.615C26.7984 17.1973 27.2705 17.6694 27.8529 17.6694H44.1471C44.7296 17.6694 45.2016 17.1973 45.2016 16.615C45.2016 16.0327 44.7296 15.5605 44.1473 15.5605Z" fill="#F5AB06"/>
<path d="M44.1473 20.2505H27.8529C27.2705 20.2505 26.7984 20.7226 26.7984 21.3049C26.7984 21.8873 27.2705 22.3594 27.8529 22.3594H44.1471C44.7296 22.3594 45.2016 21.8873 45.2016 21.3049C45.2016 20.7226 44.7296 20.2505 44.1473 20.2505Z" fill="#F5AB06"/>
</svg>
