<svg width="68" height="66" viewBox="0 0 68 66" fill="none" xmlns="http://www.w3.org/2000/svg">
<path d="M10.25 20.75V24.784L8.32948 26.7045L9.92052 28.2955L14.983 23.233C15.2196 22.9964 15.5404 22.8635 15.875 22.8635C16.2096 22.8635 16.5304 22.9964 16.767 23.233C17.0036 23.4696 17.1365 23.7904 17.1365 24.125C17.1365 24.4596 17.0036 24.7804 16.767 25.017L11.7045 30.0795C11.6 30.184 11.5171 30.308 11.4606 30.4445C11.4041 30.581 11.375 30.7273 11.375 30.875C11.375 31.0227 11.4041 31.169 11.4606 31.3055C11.5171 31.442 11.6 31.566 11.7045 31.6705C12.6854 32.6538 13.2363 33.9861 13.2363 35.375C13.2363 36.7639 12.6854 38.0962 11.7045 39.0795L6.07948 44.7045L7.67052 46.2955L10.25 43.716V52.25C10.2513 53.4431 10.7259 54.5869 11.5695 55.4305C12.4131 56.2741 13.5569 56.7487 14.75 56.75H40.625V54.5H20.375V52.25H40.625V50H14.75C14.1535 49.9993 13.5816 49.762 13.1598 49.3402C12.738 48.9184 12.5007 48.3465 12.5 47.75V41.466L13.2955 40.6705C14.5619 39.4036 15.3325 37.7249 15.4676 35.9387C15.6028 34.1525 15.0935 32.3769 14.0321 30.9339L18.358 26.608C19.0119 25.9485 19.3779 25.0568 19.3759 24.1281C19.3739 23.1994 19.004 22.3093 18.3474 21.6526C17.6907 20.996 16.8006 20.6261 15.8719 20.6241C14.9432 20.6221 14.0515 20.9881 13.392 21.642L12.5 22.534V9.5C12.5007 8.90348 12.738 8.33159 13.1598 7.90979C13.5816 7.48799 14.1535 7.25071 14.75 7.25H62C62.5965 7.25071 63.1684 7.48799 63.5902 7.90979C64.012 8.33159 64.2493 8.90348 64.25 9.5V41H66.5V9.5C66.4987 8.30694 66.0241 7.16312 65.1805 6.3195C64.3369 5.47588 63.1931 5.00134 62 5H14.75C13.5569 5.00134 12.4131 5.47588 11.5695 6.3195C10.7259 7.16312 10.2513 8.30694 10.25 9.5V18.5H6.875C5.68194 18.5013 4.53812 18.9759 3.6945 19.8195C2.85088 20.6631 2.37634 21.8069 2.375 23V32.6591L0.454483 34.5795L2.04551 36.1705L4.29552 33.9205C4.39998 33.816 4.48284 33.692 4.53938 33.5555C4.59591 33.419 4.625 33.2727 4.625 33.125V23C4.62571 22.4035 4.86299 21.8316 5.28479 21.4098C5.70659 20.988 6.27848 20.7507 6.875 20.75H10.25ZM14.75 52.25H18.125V54.5H14.75C14.1535 54.4993 13.5816 54.262 13.1598 53.8402C12.738 53.4184 12.5007 52.8465 12.5 52.25V51.6453C13.1834 52.0421 13.9597 52.2508 14.75 52.25Z" fill="#F5AB06"/>
<path d="M64.25 43.25C63.8667 43.2498 63.4862 43.3153 63.125 43.4435V43.25C63.1255 42.6605 62.9714 42.0811 62.6781 41.5697C62.3849 41.0583 61.9627 40.6327 61.4536 40.3353C60.9446 40.038 60.3665 39.8792 59.777 39.8749C59.1875 39.8707 58.6071 40.021 58.0938 40.3109C57.6846 39.6676 57.0692 39.1821 56.3483 38.9338C55.6275 38.6854 54.8437 38.6888 54.125 38.9435V37.625C54.125 36.7299 53.7694 35.8715 53.1365 35.2385C52.5035 34.6056 51.6451 34.25 50.75 34.25C49.8549 34.25 48.9964 34.6056 48.3635 35.2385C47.7306 35.8715 47.375 36.7299 47.375 37.625V47.0548L46.1968 47.6438C45.2556 48.1141 44.4545 48.8234 43.8736 49.7006C43.2927 50.5779 42.9525 51.5923 42.887 52.6424C42.8215 53.6926 43.033 54.7414 43.5004 55.6841C43.9677 56.6267 44.6745 57.4301 45.55 58.0137L48.619 60.0598C48.9284 60.2653 49.1822 60.5442 49.3578 60.8716C49.5333 61.199 49.6251 61.5648 49.625 61.9363V65.75H51.875V61.9363C51.8755 61.1945 51.6925 60.4641 51.3423 59.8102C50.9921 59.1563 50.4855 58.5992 49.8678 58.1885L47.9975 56.9376L46.7977 56.1415C45.9863 55.6011 45.417 54.7661 45.2105 53.8133C45.004 52.8605 45.1764 51.8647 45.6913 51.0368C46.0561 50.4439 46.5802 49.9655 47.2037 49.6559L47.3756 49.57V53.375H49.6256V37.625C49.6256 37.3266 49.7441 37.0405 49.9551 36.8295C50.166 36.6185 50.4522 36.5 50.7506 36.5C51.0489 36.5 51.3351 36.6185 51.546 36.8295C51.757 37.0405 51.8756 37.3266 51.8756 37.625V46.625H54.1256V42.125C54.1256 41.8266 54.2441 41.5405 54.4551 41.3295C54.666 41.1185 54.9522 41 55.2506 41C55.5489 41 55.8351 41.1185 56.046 41.3295C56.257 41.5405 56.3755 41.8266 56.3755 42.125V47.75H58.6255V43.25C58.6255 42.9516 58.7441 42.6655 58.9551 42.4545C59.166 42.2435 59.4522 42.125 59.7505 42.125C60.0489 42.125 60.3351 42.2435 60.546 42.4545C60.757 42.6655 60.8755 42.9516 60.8755 43.25V48.875H63.1255V46.625C63.1255 46.3266 63.2441 46.0405 63.455 45.8295C63.666 45.6185 63.9522 45.5 64.2505 45.5C64.5489 45.5 64.8351 45.6185 65.046 45.8295C65.257 46.0405 65.3755 46.3266 65.3755 46.625V50.5939C65.3719 53.7274 64.6424 56.8176 63.2444 59.622C63.166 59.7781 63.1252 59.9503 63.125 60.125V65.75H65.375V60.3868C66.8518 57.3332 67.6209 53.9858 67.625 50.5939V46.625C67.6239 45.7302 67.268 44.8724 66.6353 44.2397C66.0026 43.607 65.1448 43.251 64.25 43.25Z" fill="#F5AB06"/>
<path d="M49.9576 16.915C49.1333 16.915 48.3276 17.1595 47.6423 17.6174C46.9569 18.0753 46.4228 18.7262 46.1074 19.4877C45.792 20.2492 45.7094 21.0871 45.8702 21.8955C46.031 22.7039 46.4279 23.4465 47.0108 24.0293C47.5936 24.6121 48.3361 25.009 49.1445 25.1698C49.9529 25.3306 50.7909 25.2481 51.5524 24.9327C52.3139 24.6172 52.9647 24.0831 53.4226 23.3978C53.8806 22.7124 54.125 21.9067 54.125 21.0825C54.1238 19.9776 53.6843 18.9183 52.903 18.137C52.1217 17.3557 51.0625 16.9163 49.9576 16.915ZM49.9576 22.9999C49.5783 22.9999 49.2076 22.8874 48.8923 22.6767C48.577 22.4661 48.3312 22.1666 48.1861 21.8162C48.041 21.4659 48.003 21.0803 48.077 20.7084C48.151 20.3364 48.3336 19.9948 48.6017 19.7266C48.8699 19.4585 49.2116 19.2759 49.5835 19.2019C49.9554 19.1279 50.341 19.1659 50.6913 19.311C51.0417 19.4561 51.3412 19.7019 51.5518 20.0172C51.7625 20.3325 51.875 20.7032 51.875 21.0825C51.8744 21.5908 51.6722 22.0782 51.3128 22.4377C50.9533 22.7971 50.4659 22.9993 49.9576 22.9999Z" fill="#F5AB06"/>
<path d="M60.5038 19.1907C60.6762 19.0351 60.7962 18.8299 60.8474 18.6033C60.8985 18.3766 60.8783 18.1398 60.7894 17.9251L59.8496 15.656C59.7616 15.4407 59.6087 15.2582 59.412 15.1339C59.2154 15.0097 58.9849 14.9499 58.7527 14.963L56.6293 15.0713L55.9683 14.4103L56.0767 12.2869C56.0886 12.0549 56.0283 11.8249 55.9042 11.6285C55.7801 11.4321 55.5983 11.2789 55.3836 11.19L53.1145 10.2504C52.8999 10.1613 52.663 10.141 52.4363 10.1921C52.2097 10.2432 52.0044 10.3633 51.8488 10.5358L50.4246 12.1135H49.4897L48.0659 10.5363C47.9102 10.3638 47.705 10.2438 47.4784 10.1927C47.2518 10.1416 47.0149 10.1619 46.8003 10.2508L44.5311 11.1905C44.3165 11.2794 44.1347 11.4325 44.0106 11.6289C43.8865 11.8253 43.8263 12.0553 43.8381 12.2873L43.9464 14.4108L43.2855 15.0717L41.162 14.9634C40.9298 14.9502 40.6992 15.0098 40.5025 15.1341C40.3058 15.2583 40.1529 15.441 40.0652 15.6564L39.1255 17.9255C39.0366 18.1402 39.0163 18.377 39.0674 18.6037C39.1185 18.8303 39.2386 19.0355 39.411 19.1912L40.9887 20.6154V21.5503L39.4114 22.9741C39.239 23.1298 39.119 23.335 39.0678 23.5616C39.0167 23.7882 39.037 24.0251 39.1259 24.2397L40.0656 26.5089C40.1538 26.724 40.3067 26.9064 40.5033 27.0306C40.6999 27.1548 40.9303 27.2147 41.1625 27.202L43.2859 27.0936L43.9468 27.7545L43.8386 29.878C43.8267 30.11 43.8869 30.34 44.011 30.5364C44.1351 30.7328 44.3169 30.8859 44.5316 30.9748L46.8007 31.9146C47.0153 32.0035 47.2522 32.0238 47.4788 31.9727C47.7054 31.9215 47.9107 31.8015 48.0663 31.629L49.4906 30.0515H50.4254L51.8497 31.629C52.0053 31.8015 52.2106 31.9215 52.4372 31.9727C52.6638 32.0238 52.9007 32.0035 53.1153 31.9146L55.3844 30.9748C55.5991 30.886 55.781 30.7328 55.9051 30.5364C56.0292 30.34 56.0894 30.11 56.0776 29.878L55.9692 27.7545L56.6301 27.0936L58.7535 27.202C58.9856 27.2143 59.2158 27.1542 59.4123 27.03C59.6088 26.9059 59.7619 26.7238 59.8504 26.5089L60.7902 24.2397C60.8791 24.0251 60.8994 23.7882 60.8482 23.5616C60.7971 23.335 60.6771 23.1298 60.5046 22.9741L58.9271 21.5499V20.615L60.5038 19.1907ZM57.0473 22.8851L58.4068 24.1123L58.0746 24.9139L56.2453 24.8205C56.0882 24.8126 55.9311 24.8377 55.7842 24.8941C55.6373 24.9506 55.5038 25.0373 55.3925 25.1485L54.0242 26.5167C53.9129 26.6281 53.8262 26.7615 53.7697 26.9084C53.7132 27.0553 53.6882 27.2124 53.6962 27.3696L53.7896 29.1989L52.9881 29.531L51.7608 28.1716C51.6553 28.0548 51.5265 27.9614 51.3826 27.8974C51.2387 27.8335 51.0831 27.8005 50.9256 27.8005H48.9906C48.8332 27.8005 48.6776 27.8335 48.5338 27.8975C48.3899 27.9614 48.2611 28.0548 48.1556 28.1716L46.9282 29.531L46.1267 29.1989L46.22 27.3696C46.2282 27.2124 46.2032 27.0553 46.1467 26.9083C46.0902 26.7614 46.0035 26.628 45.8921 26.5167L44.524 25.1485C44.4126 25.0372 44.2791 24.9506 44.1322 24.8941C43.9853 24.8376 43.8281 24.8126 43.6709 24.8205L41.8418 24.9139L41.5095 24.1123L42.869 22.8851C42.9858 22.7796 43.0793 22.6508 43.1432 22.5069C43.2072 22.3631 43.2402 22.2074 43.2402 22.0499V20.1149C43.2402 19.9575 43.2071 19.8019 43.1432 19.658C43.0792 19.5142 42.9858 19.3854 42.869 19.2799L41.5095 18.0525L41.8418 17.251L43.6709 17.3443C43.8282 17.3525 43.9853 17.3275 44.1323 17.271C44.2792 17.2145 44.4127 17.1278 44.524 17.0164L45.8921 15.6483C46.0034 15.5369 46.0901 15.4035 46.1466 15.2565C46.2031 15.1096 46.2281 14.9524 46.22 14.7952L46.1267 12.9661L46.9282 12.6338L48.1556 13.9932C48.2611 14.1101 48.3899 14.2035 48.5337 14.2675C48.6776 14.3314 48.8332 14.3645 48.9906 14.3645H50.9256C51.0831 14.3645 51.2388 14.3315 51.3826 14.2675C51.5265 14.2036 51.6553 14.1101 51.7608 13.9932L52.9881 12.6338L53.7896 12.9661L53.6962 14.7952C53.6882 14.9524 53.7132 15.1096 53.7697 15.2565C53.8262 15.4035 53.9129 15.5369 54.0242 15.6483L55.3925 17.0164C55.5038 17.1277 55.6372 17.2144 55.7841 17.2709C55.931 17.3274 56.0882 17.3524 56.2453 17.3443L58.0746 17.251L58.4068 18.0525L57.0473 19.2799C56.9305 19.3854 56.8371 19.5142 56.7732 19.658C56.7093 19.8019 56.6762 19.9575 56.6762 20.1149V22.0499C56.6762 22.2074 56.7092 22.363 56.7732 22.5069C56.8371 22.6508 56.9305 22.7796 57.0473 22.8851Z" fill="#F5AB06"/>
<path d="M18.125 43.25V45.5H42.875V43.25H40.625V39.875H38.375V43.25H36.125V37.625H33.875V43.25H31.625V34.25H29.375V43.25H27.125V37.625H24.875V43.25H22.625V39.875H20.375V43.25H18.125Z" fill="#F5AB06"/>
<path d="M19.25 11.75H21.5V14H19.25V11.75Z" fill="#F5AB06"/>
<path d="M23.75 11.75H35V14H23.75V11.75Z" fill="#F5AB06"/>
<path d="M17 16.25H35V18.5H17V16.25Z" fill="#F5AB06"/>
<path d="M21.5 20.75H35V23H21.5V20.75Z" fill="#F5AB06"/>
<path d="M21.5 25.25H32.75V27.5H21.5V25.25Z" fill="#F5AB06"/>
<path d="M20.375 0.5H49.625V2.75H20.375V0.5Z" fill="#F5AB06"/>
<path d="M51.875 0.5H54.125V2.75H51.875V0.5Z" fill="#F5AB06"/>
</svg>
