<svg width="70" height="72" viewBox="0 0 70 72" fill="none" xmlns="http://www.w3.org/2000/svg">
<path d="M69.6567 44.3023C69.5386 42.7356 68.7453 41.3027 67.4804 40.3709C65.3201 38.7797 62.3751 39.0019 60.478 40.899L55.9164 45.4605C53.8184 47.5586 51.143 48.8693 48.2486 49.2457C48.6054 48.5343 48.8074 47.7324 48.8074 46.8838C48.8074 43.968 46.4353 41.5958 43.5196 41.5958H34.8615C32.4151 39.3556 29.2655 38.1289 25.9275 38.1289C21.0356 38.1289 16.4366 40.034 12.9776 43.493L8.77553 47.695L7.8519 47.1618C7.17928 46.7735 6.31921 47.0039 5.93094 47.6765L0.516811 57.054C0.1284 57.7266 0.358887 58.5866 1.0315 58.975L6.6501 62.2188C7.32258 62.6072 8.18279 62.3767 8.57106 61.7041C8.95947 61.0315 8.72898 60.1716 8.05637 59.7832L3.65574 57.2425L7.6636 50.3007L27.4613 61.7308L23.4534 68.6726L19.0158 66.1105C18.3432 65.7224 17.4833 65.9526 17.0949 66.6252C16.7065 67.2978 16.9369 68.1578 17.6096 68.5462L23.265 71.8114C23.4865 71.9392 23.7282 72.0001 23.9669 72.0001C24.4529 72.0001 24.9255 71.7478 25.186 71.2967L30.6001 61.9191C30.7825 61.6033 30.8338 61.2295 30.7458 60.8762H46.5746C52.481 60.8762 58.034 58.5763 62.2104 54.3997L68.0945 48.5154C69.2053 47.4048 69.7747 45.869 69.6567 44.3023ZM66.1056 46.5268L60.2215 52.4111C56.5762 56.0564 51.7297 58.0639 46.5744 58.0639H26.7347L11.2972 49.1509L14.9665 45.4817C17.8943 42.5539 21.787 40.9414 25.9276 40.9414C28.7137 40.9414 31.333 42.0264 33.3032 43.9965C33.5669 44.2602 33.9246 44.4084 34.2976 44.4084H43.5197C44.8847 44.4084 45.995 45.5188 45.995 46.8839C45.995 48.2487 44.8847 49.3592 43.5197 49.3592H32.8294C32.0528 49.3592 31.4232 49.9889 31.4232 50.7655C31.4232 51.542 32.0528 52.1717 32.8294 52.1717H46.5047C50.8114 52.1717 54.8601 50.4946 57.9051 47.4495L62.4668 42.888C63.3731 41.9815 64.7801 41.8753 65.8124 42.6357C66.4167 43.0808 66.7958 43.7655 66.8522 44.5139C66.9085 45.2623 66.6365 45.996 66.1056 46.5268Z" fill="#F5AB06"/>
<path d="M28.2432 20.2596L34.5178 24.7976L32.1142 32.1403C31.713 33.3661 32.128 34.6479 33.1713 35.4061C34.2147 36.164 35.5619 36.1625 36.6038 35.4023L42.8444 30.8472L49.085 35.4023C49.6069 35.7832 50.2053 35.9736 50.8038 35.9736C51.4002 35.9736 51.9967 35.7845 52.5176 35.4062C53.561 34.6481 53.976 33.3663 53.5748 32.1404L51.1712 24.7978L57.4458 20.2597C58.4897 19.5048 58.9078 18.225 58.5111 16.9994C58.1144 15.7739 57.0255 14.9819 55.7372 14.9819H47.9907L45.6186 7.64355C45.2222 6.41743 44.1333 5.625 42.8444 5.625C41.5556 5.625 40.4667 6.41743 40.0703 7.64355L37.6982 14.9819H29.9516C28.6634 14.9819 27.5746 15.7737 27.1779 16.9994C26.7812 18.225 27.1993 19.5047 28.2432 20.2596ZM29.8538 17.8656C29.8768 17.7944 29.9082 17.7944 29.9516 17.7944H38.7215C39.3316 17.7944 39.872 17.4011 40.0596 16.8207L42.7464 8.50883C42.7598 8.46749 42.7695 8.43753 42.8443 8.43753C42.9193 8.43753 42.929 8.46749 42.9423 8.50883L45.6291 16.8207C45.8167 17.4011 46.3572 17.7944 46.9672 17.7944H55.7371C55.7805 17.7944 55.812 17.7944 55.8351 17.8657C55.8582 17.9369 55.8327 17.9553 55.7974 17.9807L48.6911 23.1201C48.1957 23.4784 47.9886 24.1159 48.1787 24.6971L50.9015 33.0153C50.915 33.0566 50.9248 33.0864 50.8642 33.1304C50.8036 33.1745 50.7782 33.1559 50.743 33.1303L43.6733 27.9703C43.1793 27.6097 42.5092 27.6097 42.0152 27.9703L34.9456 33.1303C34.9103 33.156 34.8848 33.1743 34.8244 33.1304C34.7637 33.0864 34.7736 33.0566 34.7871 33.0153L37.5099 24.6971C37.7002 24.1159 37.493 23.4784 36.9975 23.1201L29.8912 17.9807C29.8562 17.9553 29.8307 17.9369 29.8538 17.8656Z" fill="#F5AB06"/>
<path d="M53.8285 5.20312H54.8129V6.1875C54.8129 6.96403 55.4424 7.59375 56.2191 7.59375C56.9958 7.59375 57.6254 6.96403 57.6254 6.1875V5.20312H58.6097C59.3864 5.20312 60.016 4.57341 60.016 3.79688C60.016 3.02034 59.3864 2.39062 58.6097 2.39062H57.6254V1.40625C57.6254 0.629719 56.9958 0 56.2191 0C55.4424 0 54.8129 0.629719 54.8129 1.40625V2.39062H53.8285C53.0518 2.39062 52.4222 3.02034 52.4222 3.79688C52.4222 4.57341 53.0518 5.20312 53.8285 5.20312Z" fill="#F5AB06"/>
<path d="M18.0313 29.0161H19.0157V30.0005C19.0157 30.777 19.6453 31.4067 20.4219 31.4067C21.1986 31.4067 21.8282 30.777 21.8282 30.0005V29.0161H22.8126C23.5892 29.0161 24.2188 28.3864 24.2188 27.6099C24.2188 26.8333 23.5892 26.2036 22.8126 26.2036H21.8282V25.2192C21.8282 24.4427 21.1986 23.813 20.4219 23.813C19.6453 23.813 19.0157 24.4427 19.0157 25.2192V26.2036H18.0313C17.2546 26.2036 16.6251 26.8333 16.6251 27.6099C16.6251 28.3864 17.2546 29.0161 18.0313 29.0161Z" fill="#F5AB06"/>
<path d="M12.8331 62.7593C12.4619 62.7593 12.1005 62.9083 11.8389 63.1699C11.5759 63.4327 11.4269 63.7955 11.4269 64.1655C11.4269 64.5354 11.5759 64.8982 11.8389 65.1596C12.1005 65.4212 12.4619 65.5702 12.8331 65.5702C13.203 65.5702 13.5658 65.4212 13.8273 65.1596C14.0889 64.8982 14.2394 64.5354 14.2394 64.1655C14.2394 63.7955 14.0889 63.4327 13.8273 63.1699C13.5658 62.9083 13.203 62.7593 12.8331 62.7593Z" fill="#F5AB06"/>
</svg>
